<svg xmlns="http://www.w3.org/2000/svg" xmlns:xlink="http://www.w3.org/1999/xlink" width="500" zoomAndPan="magnify" viewBox="0 0 375 374.999991" height="500" preserveAspectRatio="xMidYMid meet" version="1.0"><defs><clipPath id="7aff560d13"><path d="M 9.46875 9.789062 L 364.96875 9.789062 L 364.96875 365.289062 L 9.46875 365.289062 Z M 9.46875 9.789062 " clip-rule="nonzero"/></clipPath><clipPath id="8b9720759e"><path d="M 47 124 L 364.96875 124 L 364.96875 307 L 47 307 Z M 47 124 " clip-rule="nonzero"/></clipPath></defs><g clip-path="url(#7aff560d13)"><path fill="#bac5ce" d="M 365.203125 187.65625 C 365.203125 285.890625 285.570312 365.523438 187.335938 365.523438 C 89.105469 365.523438 9.46875 285.890625 9.46875 187.65625 C 9.46875 89.421875 89.105469 9.789062 187.335938 9.789062 C 278.007812 9.789062 352.828125 77.632812 363.8125 165.324219 C 364.609375 171.664062 365.074219 178.101562 365.175781 184.628906 C 365.199219 185.636719 365.203125 186.648438 365.203125 187.65625 Z M 365.203125 187.65625 " fill-opacity="1" fill-rule="nonzero"/></g><g clip-path="url(#8b9720759e)"><path fill="#ffffff" d="M 365.175781 184.628906 C 349.988281 203.128906 320.230469 201.683594 320.230469 201.683594 C 301.875 280.75 191.039062 320.992188 114.085938 301.222656 C 37.136719 281.460938 47.722656 189.683594 47.722656 189.683594 L 272.933594 189.683594 C 291.515625 189.683594 292.933594 184.035156 292.933594 184.035156 C 276.460938 144.96875 301.878906 124.023438 301.878906 124.023438 C 321.644531 127.558594 326.582031 161.441406 326.582031 161.441406 C 342.808594 158.53125 355.839844 161.992188 363.8125 165.324219 C 364.609375 171.664062 365.074219 178.101562 365.175781 184.628906 Z M 365.175781 184.628906 " fill-opacity="1" fill-rule="nonzero"/></g><path fill="#ffffff" d="M 71.722656 153.914062 L 103.261719 153.914062 L 103.261719 182.621094 L 71.722656 182.621094 Z M 71.722656 153.914062 " fill-opacity="1" fill-rule="nonzero"/><path fill="#ffffff" d="M 111.355469 153.914062 L 142.894531 153.914062 L 142.894531 182.621094 L 111.355469 182.621094 Z M 111.355469 153.914062 " fill-opacity="1" fill-rule="nonzero"/><path fill="#ffffff" d="M 230.238281 153.914062 L 261.773438 153.914062 L 261.773438 182.621094 L 230.238281 182.621094 Z M 230.238281 153.914062 " fill-opacity="1" fill-rule="nonzero"/><path fill="#ffffff" d="M 190.613281 153.914062 L 222.148438 153.914062 L 222.148438 182.621094 L 190.613281 182.621094 Z M 190.613281 153.914062 " fill-opacity="1" fill-rule="nonzero"/><path fill="#ffffff" d="M 190.613281 80.492188 L 222.148438 80.492188 L 222.148438 109.203125 L 190.613281 109.203125 Z M 190.613281 80.492188 " fill-opacity="1" fill-rule="nonzero"/><path fill="#ffffff" d="M 150.980469 153.914062 L 182.515625 153.914062 L 182.515625 182.621094 L 150.980469 182.621094 Z M 150.980469 153.914062 " fill-opacity="1" fill-rule="nonzero"/><path fill="#ffffff" d="M 111.355469 117.199219 L 142.894531 117.199219 L 142.894531 145.910156 L 111.355469 145.910156 Z M 111.355469 117.199219 " fill-opacity="1" fill-rule="nonzero"/><path fill="#ffffff" d="M 190.613281 117.199219 L 222.148438 117.199219 L 222.148438 145.910156 L 190.613281 145.910156 Z M 190.613281 117.199219 " fill-opacity="1" fill-rule="nonzero"/><path fill="#ffffff" d="M 150.980469 117.199219 L 182.515625 117.199219 L 182.515625 145.910156 L 150.980469 145.910156 Z M 150.980469 117.199219 " fill-opacity="1" fill-rule="nonzero"/></svg>