<svg xmlns="http://www.w3.org/2000/svg" xmlns:xlink="http://www.w3.org/1999/xlink" width="1024" zoomAndPan="magnify" viewBox="0 0 768 767.999994" height="1024" preserveAspectRatio="xMidYMid meet" version="1.0"><defs><clipPath id="cfde467152"><path d="M 230.398438 294 L 537.898438 294 L 537.898438 474 L 230.398438 474 Z M 230.398438 294 " clip-rule="nonzero"/></clipPath></defs><g clip-path="url(#cfde467152)"><path fill="#bac5ce" d="M 537.59375 468.324219 C 536.488281 468.742188 535.347656 469.058594 534.183594 469.269531 C 533.019531 469.484375 531.84375 469.589844 530.65625 469.589844 C 529.472656 469.585938 528.296875 469.480469 527.132812 469.265625 C 525.964844 469.050781 524.828125 468.734375 523.71875 468.3125 C 522.613281 467.890625 521.550781 467.375 520.539062 466.761719 C 519.523438 466.148438 518.574219 465.445312 517.6875 464.660156 C 516.800781 463.875 515.992188 463.015625 515.261719 462.082031 C 514.53125 461.148438 513.890625 460.15625 513.339844 459.105469 L 469.179688 398.039062 L 462.78125 389.5 L 411.542969 459.183594 C 411.027344 460.1875 410.421875 461.140625 409.734375 462.035156 C 409.042969 462.933594 408.277344 463.761719 407.441406 464.519531 C 406.601562 465.277344 405.703125 465.953125 404.738281 466.550781 C 403.777344 467.144531 402.773438 467.652344 401.71875 468.0625 C 400.667969 468.476562 399.585938 468.792969 398.476562 469.011719 C 397.367188 469.230469 396.246094 469.347656 395.113281 469.363281 C 393.984375 469.378906 392.859375 469.292969 391.746094 469.105469 C 390.628906 468.917969 389.542969 468.628906 388.476562 468.246094 L 454.5 379.671875 L 393.085938 299.660156 C 394.179688 299.265625 395.304688 298.964844 396.449219 298.761719 C 397.597656 298.558594 398.753906 298.457031 399.917969 298.449219 C 401.082031 298.445312 402.238281 298.539062 403.386719 298.734375 C 404.535156 298.925781 405.660156 299.214844 406.761719 299.601562 C 407.859375 299.984375 408.917969 300.460938 409.9375 301.027344 C 410.953125 301.59375 411.917969 302.242188 412.824219 302.972656 C 413.730469 303.707031 414.566406 304.507812 415.335938 305.382812 C 416.105469 306.257812 416.796875 307.191406 417.40625 308.183594 L 463.175781 370.007812 L 509.207031 308.441406 C 509.726562 307.453125 510.332031 306.519531 511.023438 305.644531 C 511.714844 304.765625 512.480469 303.960938 513.320312 303.222656 C 514.15625 302.484375 515.054688 301.828125 516.015625 301.253906 C 516.972656 300.683594 517.976562 300.199219 519.019531 299.808594 C 520.066406 299.417969 521.140625 299.125 522.238281 298.929688 C 523.339844 298.734375 524.445312 298.640625 525.5625 298.648438 C 526.679688 298.65625 527.789062 298.761719 528.882812 298.972656 C 529.980469 299.179688 531.050781 299.484375 532.089844 299.890625 L 508.257812 331.519531 L 475.976562 373.539062 C 475.527344 373.941406 475.128906 374.382812 474.773438 374.867188 C 474.417969 375.351562 474.117188 375.867188 473.871094 376.417969 C 473.625 376.964844 473.441406 377.53125 473.316406 378.121094 C 473.191406 378.707031 473.128906 379.300781 473.128906 379.902344 C 473.128906 380.503906 473.191406 381.097656 473.316406 381.683594 C 473.441406 382.269531 473.625 382.839844 473.871094 383.386719 C 474.117188 383.933594 474.417969 384.453125 474.773438 384.9375 C 475.128906 385.421875 475.527344 385.863281 475.976562 386.261719 L 537.46875 468.335938 Z M 230.425781 378.570312 L 235.800781 352.011719 C 250.574219 299.492188 310.78125 277.644531 352.203125 310.15625 C 376.457031 329.214844 382.511719 356.195312 381.324219 386.609375 L 244.683594 386.609375 C 242.46875 440.917969 281.664062 473.710938 331.773438 456.957031 C 333.796875 456.226562 335.769531 455.378906 337.6875 454.40625 C 339.605469 453.433594 341.457031 452.347656 343.238281 451.148438 C 345.023438 449.949219 346.726562 448.640625 348.347656 447.230469 C 349.972656 445.820312 351.5 444.3125 352.9375 442.714844 C 354.375 441.113281 355.707031 439.433594 356.933594 437.667969 C 358.164062 435.902344 359.277344 434.070312 360.28125 432.167969 C 361.28125 430.265625 362.164062 428.308594 362.921875 426.296875 C 363.683594 424.285156 364.316406 422.234375 364.824219 420.144531 C 367.472656 411.621094 371.835938 410.160156 379.851562 412.617188 C 379.519531 415.210938 379.039062 417.773438 378.417969 420.3125 C 377.792969 422.847656 377.03125 425.34375 376.125 427.792969 C 375.222656 430.246094 374.183594 432.636719 373.007812 434.96875 C 371.832031 437.304688 370.53125 439.5625 369.097656 441.75 C 367.667969 443.9375 366.121094 446.035156 364.453125 448.046875 C 362.785156 450.054688 361.007812 451.96875 359.125 453.777344 C 357.242188 455.585938 355.261719 457.285156 353.1875 458.871094 C 351.113281 460.460938 348.953125 461.925781 346.710938 463.265625 C 344.871094 464.273438 342.988281 465.207031 341.074219 466.070312 C 339.15625 466.929688 337.210938 467.714844 335.234375 468.421875 C 333.257812 469.128906 331.253906 469.757812 329.226562 470.308594 C 327.199219 470.859375 325.15625 471.328125 323.09375 471.71875 C 321.027344 472.109375 318.953125 472.417969 316.863281 472.644531 C 314.777344 472.871094 312.683594 473.015625 310.582031 473.078125 C 308.484375 473.140625 306.386719 473.121094 304.289062 473.019531 C 302.191406 472.917969 300.101562 472.734375 298.015625 472.46875 C 295.933594 472.203125 293.863281 471.855469 291.808594 471.425781 C 289.75 470.996094 287.714844 470.488281 285.699219 469.902344 C 283.683594 469.3125 281.691406 468.648438 279.730469 467.902344 C 277.765625 467.15625 275.832031 466.335938 273.933594 465.441406 C 272.035156 464.546875 270.171875 463.578125 268.351562 462.535156 C 266.527344 461.492188 264.746094 460.378906 263.011719 459.199219 C 261.273438 458.015625 259.585938 456.769531 257.949219 455.453125 C 256.3125 454.140625 254.726562 452.761719 253.195312 451.324219 C 250.167969 447.914062 247.433594 444.28125 244.996094 440.429688 C 242.554688 436.574219 240.445312 432.550781 238.660156 428.351562 C 236.875 424.152344 235.441406 419.839844 234.359375 415.410156 C 233.277344 410.980469 232.558594 406.492188 232.203125 401.941406 C 232.203125 398.933594 231.179688 396.117188 230.488281 393.417969 C 230.425781 388.472656 230.398438 383.527344 230.398438 378.582031 Z M 244.851562 374.910156 L 368.421875 374.910156 C 367.652344 335.539062 342.808594 307.609375 309.667969 307.351562 C 272.78125 306.839844 246.386719 334.15625 244.761719 374.730469 Z M 244.851562 374.910156 " fill-opacity="1" fill-rule="nonzero"/></g></svg>