<svg xmlns="http://www.w3.org/2000/svg" xmlns:xlink="http://www.w3.org/1999/xlink" width="500" zoomAndPan="magnify" viewBox="0 0 375 374.999991" height="500" preserveAspectRatio="xMidYMid meet" version="1.0"><defs><clipPath id="14c62e40cf"><path d="M 26.582031 19.519531 L 354.195312 19.519531 L 354.195312 349.699219 L 26.582031 349.699219 Z M 26.582031 19.519531 " clip-rule="nonzero"/></clipPath><clipPath id="d6311b1d63"><path d="M 0.582031 0.519531 L 328.195312 0.519531 L 328.195312 330.699219 L 0.582031 330.699219 Z M 0.582031 0.519531 " clip-rule="nonzero"/></clipPath><clipPath id="ab2454f819"><rect x="0" width="329" y="0" height="331"/></clipPath><clipPath id="f16bf3eaf9"><path d="M 26.582031 22 L 354.332031 22 L 354.332031 347 L 26.582031 347 Z M 26.582031 22 " clip-rule="nonzero"/></clipPath></defs><g clip-path="url(#14c62e40cf)"><g transform="matrix(1, 0, 0, 1, 26, 19)"><g clip-path="url(#ab2454f819)"><g clip-path="url(#d6311b1d63)"><path fill="#bac5ce" d="M 0.582031 0.519531 L 328.195312 0.519531 L 328.195312 330.691406 L 0.582031 330.691406 Z M 0.582031 0.519531 " fill-opacity="1" fill-rule="nonzero"/></g></g></g></g><g clip-path="url(#f16bf3eaf9)"><path fill="#ffffff" d="M 131.226562 223.800781 C 134.464844 225.804688 183.34375 235.742188 195.289062 237.722656 C 199.425781 238.597656 196.492188 242.855469 190.785156 245.734375 C 177.914062 249.164062 115.476562 223.800781 131.226562 223.800781 Z M 208.3125 42.742188 L 256.15625 91.335938 C 260.703125 95.976562 260.632812 104.960938 258.09375 107.539062 L 234.34375 88.539062 L 229.675781 116.671875 L 209.8125 106.203125 L 178.035156 126.269531 L 167.511719 83.953125 L 150.433594 113.492188 L 124.320312 113.492188 C 113.671875 113.492188 112.429688 99.976562 122.09375 90.3125 C 138.980469 72.089844 158.363281 53.511719 168.902344 42.742188 C 179.496094 31.917969 197.9375 32.230469 208.3125 42.742188 Z M 160.167969 34.046875 L 39.222656 157.800781 C -1.632812 208.402344 67.042969 202.519531 96.472656 217.082031 C 107.039062 227.882812 56 235.851562 66.566406 246.652344 C 77.117188 257.449219 130.421875 267.453125 141 278.238281 C 151.554688 289.035156 119.378906 300.488281 129.945312 311.273438 C 140.496094 322.082031 164.929688 311.84375 169.503906 336.769531 C 172.753906 354.570312 213.511719 344.414062 233.441406 329.835938 C 244.007812 319.039062 213.238281 320.046875 223.804688 309.25 C 250.054688 282.402344 274.515625 299.503906 283.496094 272.585938 C 287.933594 259.289062 244.839844 252.097656 255.417969 241.300781 C 285.804688 223.554688 390.816406 212.007812 340.980469 162.183594 L 215.640625 34.046875 C 200.3125 19.332031 174.71875 19.167969 160.179688 34.046875 Z M 299.085938 272.585938 C 299.085938 278.730469 344.324219 282.753906 344.324219 271.140625 C 337.882812 252.492188 304.4375 253.75 299.085938 272.585938 Z M 95.3125 305.210938 C 106.015625 314.480469 122.574219 302.902344 127.527344 289.976562 C 117.152344 276.191406 78.292969 290.480469 95.3125 305.210938 Z M 293.40625 285.199219 C 279.609375 297.59375 294.964844 310.152344 308.574219 302.152344 C 311.605469 299.082031 308.492188 288.285156 293.421875 285.199219 Z M 293.40625 285.199219 " fill-opacity="1" fill-rule="nonzero"/></g></svg>