<svg height="300" viewBox="0 0 512 512" width="300" xmlns="http://www.w3.org/2000/svg" version="1.1" xmlns:xlink="http://www.w3.org/1999/xlink" xmlns:svgjs="http://svgjs.dev/svgjs"><g width="100%" height="100%" transform="matrix(1,0,0,1,0,0)"><g id="Layer_2" data-name="Layer 2"><g id="eco"><path d="m467 512h-422a45.05 45.05 0 0 1 -45-45v-422a45.05 45.05 0 0 1 45-45h422a45.05 45.05 0 0 1 45 45v422a45.05 45.05 0 0 1 -45 45z" fill="#bac5ce" fill-opacity="1" data-original-color="#2196f3ff" stroke="none" stroke-opacity="1"/><g fill="#fff"><path d="m242.53 371.54c-5.41.26-10.84.4-16.22.4-41.64 0-80.89-7.81-110.53-22-14.91-7.12-26.61-15.51-34.78-24.73v39.89c0 35.72 66.54 65.9 145.31 65.9a297.25 297.25 0 0 0 55.69-5.15 103.75 103.75 0 0 1 -39.47-54.31zm-132 .84a7.09 7.09 0 0 1 -1 2.46 6.88 6.88 0 0 1 -.84 1 6.79 6.79 0 0 1 -2.23 1.48 7.16 7.16 0 0 1 -1.27.39 6.7 6.7 0 0 1 -1.34.14 6.84 6.84 0 0 1 -4.83-2 7.7 7.7 0 0 1 -.86-1 7.92 7.92 0 0 1 -.62-1.19 7.16 7.16 0 0 1 -.39-1.27 6.69 6.69 0 0 1 -.15-1.39 6.76 6.76 0 0 1 .13-1.34 7 7 0 0 1 .39-1.28 6.49 6.49 0 0 1 1.48-2.18 6.64 6.64 0 0 1 1-.85 7.27 7.27 0 0 1 1.17-.62 6.07 6.07 0 0 1 1.28-.39 6.72 6.72 0 0 1 2.68 0 5.82 5.82 0 0 1 1.27.39 7.06 7.06 0 0 1 1.19.62 7.71 7.71 0 0 1 1 .85 7 7 0 0 1 .84 1 6.88 6.88 0 0 1 1 2.46 6.78 6.78 0 0 1 .14 1.34 6.7 6.7 0 0 1 -.02 1.38zm29.69 14.84a7.16 7.16 0 0 1 -.39 1.27 6.79 6.79 0 0 1 -1.48 2.23 7.09 7.09 0 0 1 -2.22 1.47 6.31 6.31 0 0 1 -1.28.39 6.53 6.53 0 0 1 -1.33.14 6.85 6.85 0 0 1 -1.34-.14 6.72 6.72 0 0 1 -1.28-.39 6.6 6.6 0 0 1 -1.17-.63 6.07 6.07 0 0 1 -1-.84 7.79 7.79 0 0 1 -.86-1 7.92 7.92 0 0 1 -.63-1.19 7.16 7.16 0 0 1 -.39-1.27 6.92 6.92 0 0 1 0-2.67 7 7 0 0 1 .39-1.28 7.81 7.81 0 0 1 .63-1.18 6.93 6.93 0 0 1 1.9-1.89 7.32 7.32 0 0 1 1.17-.63 7.53 7.53 0 0 1 1.28-.39 6.81 6.81 0 0 1 4 .39 6.05 6.05 0 0 1 1.18.63 6.64 6.64 0 0 1 1 .85 5.68 5.68 0 0 1 .85 1 6.35 6.35 0 0 1 .63 1.18 7 7 0 0 1 .39 1.28 6.44 6.44 0 0 1 0 2.67z" fill="#ffffff" fill-opacity="1" data-original-color="#ffffffff" stroke="none" stroke-opacity="1"/><ellipse cx="226.31" cy="146.9" rx="145.31" ry="65.9" fill="#ffffff" fill-opacity="1" data-original-color="#ffffffff" stroke="none" stroke-opacity="1"/><path d="m226.31 285.53c9.8 0 19.54-.46 29-1.35a103.26 103.26 0 0 1 116.28-41.62v-62.8c-8.17 9.23-19.87 17.61-34.77 24.74-29.64 14.17-68.9 22-110.54 22s-80.89-7.8-110.53-22c-14.88-7.13-26.58-15.5-34.75-24.74v39.87c0 35.72 66.54 65.9 145.31 65.9zm-99.48-49.42a7.53 7.53 0 0 1 .39-1.28 8.32 8.32 0 0 1 .63-1.18 7.79 7.79 0 0 1 .86-1 7 7 0 0 1 2.21-1.48 7.53 7.53 0 0 1 1.28-.39 6.9 6.9 0 0 1 6.17 1.87 6.44 6.44 0 0 1 .85 1 6.69 6.69 0 0 1 .63 1.18 7.53 7.53 0 0 1 .39 1.28 6.7 6.7 0 0 1 .14 1.34 6.85 6.85 0 0 1 -8.18 6.7 7.53 7.53 0 0 1 -1.28-.39 7.32 7.32 0 0 1 -1.17-.63 6.64 6.64 0 0 1 -1-.85 6.86 6.86 0 0 1 -2-4.83 7.51 7.51 0 0 1 .08-1.34zm-29.68-14.84a7 7 0 0 1 .39-1.28 6.61 6.61 0 0 1 .62-1.18 6.7 6.7 0 0 1 .86-1 6.88 6.88 0 0 1 6.17-1.87 7.16 7.16 0 0 1 1.27.39 6.79 6.79 0 0 1 2.23 1.48 6.07 6.07 0 0 1 .84 1 6.35 6.35 0 0 1 .63 1.18 7 7 0 0 1 .39 1.28 6.6 6.6 0 0 1 .14 1.33 6.85 6.85 0 0 1 -.14 1.34 7.53 7.53 0 0 1 -.39 1.28 6.6 6.6 0 0 1 -.63 1.17 6.07 6.07 0 0 1 -.84 1 7.79 7.79 0 0 1 -1 .86 7.92 7.92 0 0 1 -1.19.63 7.16 7.16 0 0 1 -1.27.39 7.51 7.51 0 0 1 -1.34.13 6.84 6.84 0 0 1 -4.83-2 6.7 6.7 0 0 1 -.86-1 7.27 7.27 0 0 1 -.62-1.17 7.53 7.53 0 0 1 -.39-1.28 6.83 6.83 0 0 1 -.19-1.35 6.59 6.59 0 0 1 .15-1.33z" fill="#ffffff" fill-opacity="1" data-original-color="#ffffffff" stroke="none" stroke-opacity="1"/><path d="m226.31 358.27c4.33 0 8.7-.11 13.07-.29a103.19 103.19 0 0 1 8-59.45c-6.93.45-14 .67-21 .67-41.64 0-80.89-7.8-110.53-22-14.98-7.1-26.68-15.48-34.85-24.71v39.88c0 35.72 66.54 65.9 145.31 65.9zm-99.48-47.94a7 7 0 0 1 .39-1.28 8.32 8.32 0 0 1 .63-1.18 7.79 7.79 0 0 1 .86-1 7 7 0 0 1 2.21-1.48 6.48 6.48 0 0 1 1.28-.38 6.67 6.67 0 0 1 2.67 0 6.29 6.29 0 0 1 1.28.38 6.05 6.05 0 0 1 1.18.63 6.64 6.64 0 0 1 1 .85 6.44 6.44 0 0 1 .85 1 6.69 6.69 0 0 1 .63 1.18 7 7 0 0 1 .39 1.28 6.68 6.68 0 0 1 .14 1.33 6.87 6.87 0 0 1 -2 4.84 6.65 6.65 0 0 1 -2.22 1.47 5.74 5.74 0 0 1 -1.28.39 6.53 6.53 0 0 1 -1.33.14 6.85 6.85 0 0 1 -1.34-.14 5.9 5.9 0 0 1 -1.28-.39 7.27 7.27 0 0 1 -1.17-.62 6.64 6.64 0 0 1 -1-.85 7.2 7.2 0 0 1 -.86-1 8.32 8.32 0 0 1 -.63-1.18 7 7 0 0 1 -.39-1.28 6.92 6.92 0 0 1 0-2.67zm-29.68-14.85a7.16 7.16 0 0 1 .39-1.27 7.06 7.06 0 0 1 .62-1.19 7.79 7.79 0 0 1 .86-1 6.07 6.07 0 0 1 1-.84 6.6 6.6 0 0 1 1.17-.63 7.53 7.53 0 0 1 1.28-.39 6.74 6.74 0 0 1 7 2.9 7.09 7.09 0 0 1 1 2.46 6.7 6.7 0 0 1 .14 1.34 7 7 0 0 1 -.53 2.62 6.6 6.6 0 0 1 -.63 1.17 6.07 6.07 0 0 1 -.84 1 7.79 7.79 0 0 1 -1 .86 7.06 7.06 0 0 1 -1.19.62 7.16 7.16 0 0 1 -1.27.39 6.69 6.69 0 0 1 -1.34.13 6.83 6.83 0 0 1 -1.34-.13 7.53 7.53 0 0 1 -1.28-.39 7.27 7.27 0 0 1 -1.17-.62 6.7 6.7 0 0 1 -1-.86 6.12 6.12 0 0 1 -.85-1 6.6 6.6 0 0 1 -.63-1.17 7.53 7.53 0 0 1 -.39-1.28 6.76 6.76 0 0 1 -.13-1.34 6.69 6.69 0 0 1 .13-1.38z" fill="#ffffff" fill-opacity="1" data-original-color="#ffffffff" stroke="none" stroke-opacity="1"/><path d="m327 319.92a25.74 25.74 0 1 0 36.4 36.41c7.05-7.05 11.38-32.55 12.92-50.64-2.12-.18-4.73-.33-7.66-.33-12.04 0-29.54 2.43-41.66 14.56z" fill="#ffffff" fill-opacity="1" data-original-color="#ffffffff" stroke="none" stroke-opacity="1"/><path d="m341.35 251.7a89.65 89.65 0 1 0 89.65 89.65 89.76 89.76 0 0 0 -89.65-89.65zm49.06 48.4c-.28 5.25-3.18 51.73-17.35 65.9a39.43 39.43 0 0 1 -52.6 2.82c-8.27 3-14 9.13-14.53 15.94a6.85 6.85 0 0 1 -6.81 6.28h-.57a6.83 6.83 0 0 1 -6.25-7.37c.89-10.69 8.11-20.21 18.83-25.65a39.47 39.47 0 0 1 6.19-47.73c25.33-25.34 65.89-17.57 67.61-17.23a6.82 6.82 0 0 1 5.48 7.04z" fill="#ffffff" fill-opacity="1" data-original-color="#ffffffff" stroke="none" stroke-opacity="1"/></g></g></g></g></svg>