<svg xmlns="http://www.w3.org/2000/svg" xmlns:xlink="http://www.w3.org/1999/xlink" width="500" zoomAndPan="magnify" viewBox="0 0 375 374.999991" height="500" preserveAspectRatio="xMidYMid meet" version="1.0"><defs><clipPath id="61c8e41128"><path d="M 8.226562 18 L 369.726562 18 L 369.726562 362 L 8.226562 362 Z M 8.226562 18 " clip-rule="nonzero"/></clipPath></defs><g clip-path="url(#61c8e41128)"><path fill="#bac5ce" d="M 258.9375 257.9375 C 272.050781 256.804688 282.195312 245.277344 281.546875 231.5 C 280.839844 217.722656 269.550781 206.660156 255.789062 206.660156 L 254.871094 206.660156 C 254.027344 206.691406 253.1875 206.761719 252.351562 206.875 C 251.515625 206.988281 250.683594 207.140625 249.863281 207.335938 C 249.042969 207.527344 248.234375 207.761719 247.433594 208.035156 C 246.636719 208.308594 245.851562 208.621094 245.085938 208.972656 C 244.316406 209.320312 243.570312 209.707031 242.839844 210.132812 C 242.109375 210.558594 241.402344 211.015625 240.71875 211.507812 C 240.035156 212.003906 239.375 212.527344 238.742188 213.085938 C 238.109375 213.644531 237.503906 214.230469 236.929688 214.847656 C 236.355469 215.46875 235.8125 216.109375 235.300781 216.78125 C 234.789062 217.453125 234.308594 218.148438 233.867188 218.863281 C 233.421875 219.582031 233.015625 220.320312 232.644531 221.078125 C 232.273438 221.835938 231.9375 222.609375 231.644531 223.402344 C 231.347656 224.191406 231.09375 224.992188 230.875 225.808594 C 230.660156 226.625 230.484375 227.449219 230.347656 228.28125 C 230.214844 229.117188 230.117188 229.953125 230.066406 230.796875 C 230.011719 231.636719 230 232.480469 230.03125 233.324219 C 230.484375 240.542969 233.4375 246.421875 237.476562 250.703125 C 221.679688 281.417969 197.972656 303.996094 162.039062 322.972656 C 137.878906 335.605469 112.363281 340.367188 87.523438 336.992188 C 66.753906 334.050781 50.503906 324.78125 40.558594 309.875 C 25.664062 287.28125 24.308594 262.910156 36.714844 238.523438 C 45.757812 220.890625 59.308594 208.03125 68.351562 201.703125 C 65.617188 194.121094 63.503906 186.367188 62.019531 178.445312 C -4.855469 226.34375 1.957031 291.820312 22.273438 322.761719 C 37.40625 345.339844 68.351562 359.78125 102.21875 359.78125 C 111.261719 359.78125 120.757812 359.117188 129.996094 356.855469 C 188.734375 345.566406 233.210938 310.34375 258.726562 258.402344 Z M 339.546875 201.476562 C 304.578125 160.359375 253.0625 137.78125 194.339844 137.78125 L 186.652344 137.78125 C 182.839844 129.429688 174.035156 124.230469 164.074219 124.230469 L 163.394531 124.230469 C 149.183594 124.230469 138.105469 136.4375 138.570312 150.652344 C 139.023438 164.1875 150.539062 175.492188 164.316406 175.492188 L 165.429688 175.492188 C 166.644531 175.445312 167.851562 175.3125 169.046875 175.089844 C 170.246094 174.871094 171.417969 174.566406 172.570312 174.179688 C 173.722656 173.792969 174.84375 173.324219 175.929688 172.777344 C 177.015625 172.226562 178.054688 171.605469 179.050781 170.90625 C 180.046875 170.210938 180.988281 169.445312 181.878906 168.613281 C 182.765625 167.78125 183.585938 166.890625 184.347656 165.941406 C 185.105469 164.988281 185.792969 163.992188 186.410156 162.941406 C 187.027344 161.894531 187.5625 160.804688 188.023438 159.679688 L 196.390625 159.679688 C 231.191406 159.679688 264.140625 169.839844 294.179688 189.703125 C 317.195312 204.851562 333.699219 224.71875 342.96875 248.441406 C 351.074219 267.855469 350.640625 286.828125 342.289062 302.65625 C 329.402344 327.480469 307.714844 340.59375 279.046875 340.59375 C 260.972656 340.59375 243.371094 334.941406 234.324219 330.886719 C 228.898438 335.378906 219.855469 342.839844 213.316406 347.359375 C 233.179688 356.375 253.285156 361.574219 272.699219 361.574219 C 316.742188 361.574219 349.476562 336.75 361.914062 312.800781 C 375.449219 285.699219 374.332031 240.089844 339.757812 201.023438 Z M 106.046875 266.046875 C 106.5 279.59375 118 290.882812 131.789062 290.882812 L 132.695312 290.882812 C 133.539062 290.867188 134.382812 290.804688 135.222656 290.699219 C 136.0625 290.597656 136.898438 290.453125 137.722656 290.265625 C 138.546875 290.078125 139.363281 289.851562 140.167969 289.585938 C 140.96875 289.316406 141.757812 289.011719 142.53125 288.664062 C 143.300781 288.316406 144.054688 287.933594 144.789062 287.511719 C 145.523438 287.089844 146.234375 286.632812 146.921875 286.140625 C 147.613281 285.648438 148.273438 285.121094 148.910156 284.5625 C 149.546875 284.003906 150.152344 283.414062 150.730469 282.796875 C 151.308594 282.175781 151.851562 281.53125 152.367188 280.855469 C 152.878906 280.183594 153.355469 279.484375 153.800781 278.765625 C 154.242188 278.042969 154.648438 277.300781 155.015625 276.539062 C 155.386719 275.777344 155.714844 275 156.007812 274.203125 C 156.300781 273.410156 156.550781 272.601562 156.761719 271.78125 C 156.972656 270.960938 157.140625 270.132812 157.269531 269.296875 C 157.398438 268.460938 157.484375 267.617188 157.527344 266.773438 C 157.570312 265.925781 157.574219 265.082031 157.53125 264.238281 C 157.53125 250.671875 145.792969 239.414062 132.015625 239.414062 L 131.109375 239.414062 C 130.207031 239.414062 128.851562 239.414062 127.703125 239.851562 C 108.96875 208.226562 101.058594 174.332031 104.011719 137.78125 C 105.820312 110.226562 114.863281 86.277344 131.097656 66.414062 C 144.660156 49.472656 170.179688 41.089844 187.570312 40.667969 C 236.347656 39.75 256.679688 100.523438 258.246094 124.683594 L 280.824219 131.464844 C 275.625 57.371094 229.578125 18.527344 185.539062 18.527344 C 144.179688 18.527344 106.046875 48.566406 90.671875 92.609375 C 69.675781 151.316406 83.453125 207.789062 109.210938 252.960938 C 106.949219 255.902344 105.59375 261.085938 106.046875 266.046875 Z M 106.046875 266.046875 " fill-opacity="1" fill-rule="nonzero"/></g></svg>