<svg xmlns="http://www.w3.org/2000/svg" xmlns:xlink="http://www.w3.org/1999/xlink" width="500" zoomAndPan="magnify" viewBox="0 0 375 374.999991" height="500" preserveAspectRatio="xMidYMid meet" version="1.0"><defs><clipPath id="03c1ff53b4"><path d="M 64.5 57.917969 L 310.5 57.917969 L 310.5 303.917969 L 64.5 303.917969 Z M 64.5 57.917969 " clip-rule="nonzero"/></clipPath><clipPath id="8e10dbbb33"><path d="M 0.5 0.917969 L 246.5 0.917969 L 246.5 246.917969 L 0.5 246.917969 Z M 0.5 0.917969 " clip-rule="nonzero"/></clipPath><clipPath id="64e17a5bd2"><rect x="0" width="247" y="0" height="247"/></clipPath><clipPath id="6f7a7c2606"><path d="M 64.5 59 L 310.5 59 L 310.5 303 L 64.5 303 Z M 64.5 59 " clip-rule="nonzero"/></clipPath></defs><g clip-path="url(#03c1ff53b4)"><g transform="matrix(1, 0, 0, 1, 64, 57)"><g clip-path="url(#64e17a5bd2)"><g clip-path="url(#8e10dbbb33)"><path fill="#bac5ce" d="M 0.5 0.917969 L 246.5 0.917969 L 246.5 246.917969 L 0.5 246.917969 Z M 0.5 0.917969 " fill-opacity="1" fill-rule="nonzero"/></g></g></g></g><g clip-path="url(#6f7a7c2606)"><path fill="#ffffff" d="M 143.074219 210.339844 C 145.503906 211.847656 182.207031 219.308594 191.175781 220.792969 C 194.28125 221.449219 192.078125 224.648438 187.792969 226.8125 C 178.128906 229.382812 131.246094 210.339844 143.074219 210.339844 Z M 200.953125 74.390625 L 236.878906 110.878906 C 240.289062 114.363281 240.238281 121.109375 238.332031 123.042969 L 220.5 108.777344 L 216.992188 129.902344 L 202.082031 122.039062 L 178.21875 137.105469 L 170.316406 105.332031 L 157.496094 127.515625 L 137.886719 127.515625 C 129.894531 127.515625 128.960938 117.367188 136.21875 110.109375 C 148.894531 96.425781 163.449219 82.476562 171.363281 74.390625 C 179.316406 66.261719 193.164062 66.5 200.953125 74.390625 Z M 164.804688 67.863281 L 73.992188 160.785156 C 43.316406 198.777344 94.878906 194.359375 116.980469 205.296875 C 124.910156 213.40625 86.589844 219.390625 94.523438 227.496094 C 102.445312 235.605469 142.46875 243.117188 150.414062 251.214844 C 158.335938 259.324219 134.175781 267.921875 142.109375 276.019531 C 150.035156 284.136719 168.378906 276.449219 171.8125 295.164062 C 174.253906 308.53125 204.859375 300.90625 219.824219 289.957031 C 227.753906 281.851562 204.652344 282.609375 212.585938 274.503906 C 232.296875 254.339844 250.664062 267.183594 257.40625 246.972656 C 260.738281 236.988281 228.378906 231.585938 236.324219 223.480469 C 259.140625 210.15625 337.988281 201.484375 300.566406 164.074219 L 206.457031 67.863281 C 194.945312 56.8125 175.730469 56.691406 164.8125 67.863281 Z M 269.113281 246.972656 C 269.113281 251.585938 303.078125 254.609375 303.078125 245.886719 C 298.242188 231.882812 273.128906 232.828125 269.113281 246.972656 Z M 116.109375 271.46875 C 124.144531 278.425781 136.574219 269.734375 140.296875 260.03125 C 132.507812 249.675781 103.328125 260.410156 116.109375 271.46875 Z M 264.847656 256.441406 C 254.484375 265.75 266.015625 275.179688 276.234375 269.171875 C 278.511719 266.867188 276.175781 258.757812 264.859375 256.441406 Z M 264.847656 256.441406 " fill-opacity="1" fill-rule="nonzero"/></g></svg>